<svg xmlns="http://www.w3.org/2000/svg" viewBox="0 0 160 240"
     width="160" height="240" role="img" aria-label="Fraise demi-ronde">
  <title>Fraise demi-ronde</title>
  <!-- Pince commune a tous les dessins : c'est elle qui rend les outils
       comparables entre eux. Grise, toujours : elle n'est pas l'outil. -->
  <path d="M28 12 h104 a6 6 0 0 1 6 6 v30 a6 6 0 0 1 -6 6 h-104
           a6 6 0 0 1 -6 -6 v-30 a6 6 0 0 1 6 -6 z" fill="#7c8592"/>
  <rect x="44" y="54" width="72" height="14" rx="3" fill="#7c8592"/>

  <path d="M66 68 h28 v146 a14 14 0 0 1 -28 0 z" fill="#ff9a1f"/>
    <path d="M66 108 Q80 101 94 92" stroke="#14171b" stroke-width="8" fill="none" opacity="0.5" stroke-linecap="round"/>
    <path d="M66 134 Q80 127 94 118" stroke="#14171b" stroke-width="8" fill="none" opacity="0.5" stroke-linecap="round"/>
    <path d="M66 160 Q80 153 94 144" stroke="#14171b" stroke-width="8" fill="none" opacity="0.5" stroke-linecap="round"/>
    <path d="M66 186 Q80 179 94 170" stroke="#14171b" stroke-width="8" fill="none" opacity="0.5" stroke-linecap="round"/>
  <path d="M66 214 a14 14 0 0 0 28 0" stroke="#14171b" stroke-width="7"
        fill="none" opacity="0.55"/>
</svg>
